<svg width="106" height="40" viewBox="0 0 106 40" fill="none" xmlns="http://www.w3.org/2000/svg">
<path d="M10.5681 0.345652L0 6.51013V20.3282L11.309 26.9254L15.6816 24.3636L11.8453 22.11L4.4345 17.7864V9.05919L11.8453 4.73651L19.258 9.05737V12.6182L23.6925 15.2055V6.51013L13.1226 0.345652C12.735 0.119289 12.2942 0 11.8453 0C11.3965 0 10.9557 0.119289 10.5681 0.345652Z" fill="#FF5545"/>
<path d="M7.97368 15.679L11.8455 17.8935L19.2581 22.2171V30.9443L11.8473 35.2669L4.43645 30.9443V27.3816L0.00195312 24.7943V33.4897L10.5682 39.6542C10.9558 39.8805 11.3966 39.9998 11.8455 39.9998C12.2943 39.9998 12.7351 39.8805 13.1227 39.6542L23.6908 33.4897V19.6717L12.4118 13.0908L7.97368 15.679Z" fill="#FF5545"/>
<path d="M49.0702 12.546L46.1012 14.2733C45.1348 13.596 43.6467 12.9097 42.0149 12.9097C40.1867 12.9097 38.9022 13.8242 38.9022 15.1669C38.9022 19.4223 49.5566 16.966 49.5566 24.1932C49.5566 27.3922 46.8712 30.2485 42.4149 30.2485C39.3585 30.2485 36.2449 28.7631 34.5059 26.8204L37.464 25.0932C38.8531 26.254 40.4713 27.0177 42.4185 27.0177C44.6185 27.0177 46.1321 25.9041 46.1321 24.2186C46.1321 20.0768 35.5349 22.705 35.5349 15.4205C35.5349 12.1642 38.334 9.67969 42.2758 9.67969C44.843 9.68696 47.6994 10.9151 49.0702 12.546Z" fill="#083C4B"/>
<path d="M65.3251 21.9997V29.9696H62.1261V22.397C62.1261 20.1979 60.7833 18.7698 58.7552 18.7698C56.6698 18.7698 55.3007 20.1979 55.3007 22.397V29.9669H52.1289V9.97168H55.2989V18.198C56.1843 16.6271 57.6697 15.7125 59.527 15.7125C63.097 15.7125 65.3251 18.1125 65.3251 21.9997Z" fill="#083C4B"/>
<path d="M72.0287 11.5457C72.0263 12.0905 71.809 12.6122 71.4239 12.9975C71.0388 13.3827 70.5171 13.6004 69.9724 13.603C69.4306 13.603 68.9111 13.3878 68.528 13.0047C68.1449 12.6216 67.9297 12.102 67.9297 11.5603C67.9297 11.0185 68.1449 10.499 68.528 10.1159C68.9111 9.7328 69.4306 9.51758 69.9724 9.51758C71.086 9.51486 72.0287 10.4548 72.0287 11.5457ZM71.5433 16.0002V29.9674H68.3724V16.0002H71.5433Z" fill="#083C4B"/>
<path d="M89.4857 23.0001C89.4857 27.0274 86.5439 30.2555 82.8303 30.2555C80.5739 30.2555 78.8603 29.2274 77.8603 27.4565V34.8546H74.6895V16.0002H77.2003L77.8603 18.5138C78.8603 16.7429 80.5739 15.7139 82.8303 15.7139C86.5439 15.713 89.4857 18.9702 89.4857 23.0001ZM86.4011 23.0001C86.4045 22.4403 86.2967 21.8853 86.084 21.3673C85.8713 20.8494 85.5579 20.3789 85.162 19.9829C84.7661 19.587 84.2956 19.2736 83.7776 19.0609C83.2597 18.8482 82.7047 18.7405 82.1448 18.7438C79.6903 18.7438 77.8603 20.572 77.8603 23.0001C77.8603 25.3992 79.6885 27.2274 82.1448 27.2274C82.7025 27.2317 83.2556 27.1255 83.772 26.915C84.2885 26.7044 84.7581 26.3937 85.1538 26.0007C85.5495 25.6077 85.8635 25.1402 86.0776 24.6252C86.2917 24.1102 86.4016 23.5579 86.4011 23.0001Z" fill="#083C4B"/>
<path d="M105.969 16.0003V29.9674H102.77V27.5129C101.77 29.2547 100.056 30.2547 97.8281 30.2547C94.1145 30.2547 91.1445 26.9984 91.1445 22.9711C91.1445 18.9439 94.1145 15.7148 97.8281 15.7148C100.056 15.7148 101.771 16.7148 102.77 18.4575L103.416 16.003L105.969 16.0003ZM102.77 22.9702C102.77 20.5702 100.942 18.7421 98.5144 18.7421C97.3895 18.7421 96.3106 19.189 95.5151 19.9845C94.7196 20.78 94.2727 21.8589 94.2727 22.9839C94.2727 24.1088 94.7196 25.1878 95.5151 25.9832C96.3106 26.7787 97.3895 27.2256 98.5144 27.2256C100.942 27.2247 102.77 25.3966 102.77 22.9693V22.9702Z" fill="#083C4B"/>
</svg>
